<svg id="Calque_1" data-name="Calque 1" xmlns="http://www.w3.org/2000/svg" viewBox="0 0 603.93 337.2"><defs><style>.cls-1{fill:#527510;}.cls-2{font-size:104.87px;}.cls-2,.cls-3{fill:#36231e;font-family:Rubik-Regular, Rubik;}.cls-3{font-size:64px;}</style></defs><title>logo-les-locavores</title><path class="cls-1" d="M537.51,444.05c-2.33,0-1.38-158.2,0-158.2S540,444.05,537.51,444.05Z" transform="translate(-396.41 -135)"/><path class="cls-1" d="M537.51,444.05S527.8,409.66,512,397.12c0,0,15.8,5.23,25.56,37.46Z" transform="translate(-396.41 -135)"/><path class="cls-1" d="M537.47,428.19s8.19-29,21.53-39.61c0,0-13.34,4.41-21.58,31.62Z" transform="translate(-396.41 -135)"/><path class="cls-1" d="M537.56,400.43s-18.14-9.58-19.65-33.45c0,0,1.65,4.18,5.5,5.57S534.4,378.13,537.56,400.43Z" transform="translate(-396.41 -135)"/><path class="cls-1" d="M537.56,381.79s-18.14-9.59-19.65-33.45c0,0,1.65,4.18,5.5,5.57S534.4,359.49,537.56,381.79Z" transform="translate(-396.41 -135)"/><path class="cls-1" d="M537.56,361.93s-17.25-9.12-18.69-31.82c0,0,1.57,4,5.23,5.3S534.56,340.72,537.56,361.93Z" transform="translate(-396.41 -135)"/><path class="cls-1" d="M537.56,342.76s-17.25-9.11-18.69-31.81c0,0,1.57,4,5.23,5.3S534.56,321.55,537.56,342.76Z" transform="translate(-396.41 -135)"/><path class="cls-1" d="M537.56,323.42s-15.3-8.08-16.58-28.22a8.92,8.92,0,0,0,4.64,4.7C528.87,301.08,534.89,304.6,537.56,323.42Z" transform="translate(-396.41 -135)"/><path class="cls-1" d="M537.7,400.43s18.14-9.58,19.65-33.45c0,0-1.65,4.18-5.5,5.57S540.86,378.13,537.7,400.43Z" transform="translate(-396.41 -135)"/><path class="cls-1" d="M537.7,381.79s18.14-9.59,19.65-33.45c0,0-1.65,4.18-5.5,5.57S540.86,359.49,537.7,381.79Z" transform="translate(-396.41 -135)"/><path class="cls-1" d="M537.7,361.93s17.25-9.12,18.69-31.82c0,0-1.57,4-5.23,5.3S540.71,340.72,537.7,361.93Z" transform="translate(-396.41 -135)"/><path class="cls-1" d="M537.7,342.76S555,333.65,556.39,311c0,0-1.57,4-5.23,5.3S540.71,321.55,537.7,342.76Z" transform="translate(-396.41 -135)"/><path class="cls-1" d="M537.7,323.42s15.31-8.08,16.58-28.22a8.92,8.92,0,0,1-4.64,4.7C546.4,301.08,540.37,304.6,537.7,323.42Z" transform="translate(-396.41 -135)"/><path class="cls-1" d="M537.56,307a29.72,29.72,0,0,1-14.12-24,7.57,7.57,0,0,0,3.95,4C530.15,288,535.29,291,537.56,307Z" transform="translate(-396.41 -135)"/><path class="cls-1" d="M537.39,307a29.74,29.74,0,0,0,14.12-24,7.57,7.57,0,0,1-4,4C544.79,288,539.66,291,537.39,307Z" transform="translate(-396.41 -135)"/><text class="cls-2" transform="translate(157.59 308.78)">ocavores</text><text class="cls-3" transform="translate(0 308.86)">Les</text><path class="cls-1" d="M706.63,266.69a5.26,5.26,0,1,0,3.73,1.54A5.3,5.3,0,0,0,706.63,266.69Z" transform="translate(-396.41 -135)"/><path class="cls-1" d="M803.11,251.85c-1.3-10.37-7.06-19.43-15.42-24.23l-30.87-17.75A39,39,0,0,0,767.54,183c0-.74,0-1.48-.07-2.22h36.95a6.59,6.59,0,0,0,0-13.17H775.26a50,50,0,0,0-93.79,0H652.31a6.59,6.59,0,0,0,0,13.17h36.94q-.06,1.11-.06,2.22a39,39,0,0,0,10.72,26.89L669,227.62c-8.36,4.8-14.12,13.86-15.42,24.23l-7.84,62.75a6.59,6.59,0,0,0,6.53,7.4H804.42a6.59,6.59,0,0,0,6.53-7.4Zm-111.62,5h73.75v52H691.49Zm10.87-13.17v-20l9.2-5.29a39.15,39.15,0,0,0,33.61,0l9.2,5.29v20Zm26-95.47a37,37,0,0,1,32,18.55h-64A37,37,0,0,1,728.36,148.17Zm25.92,32.59q.09,1.11.09,2.22a26,26,0,1,1-52,0q0-1.11.09-2.22Zm-87.59,72.72c.79-6.29,4.12-11.69,8.91-14.44l13.59-7.81v12.41h-4.28a6.59,6.59,0,0,0-6.59,6.59v58.6H659.77Zm111.72,55.35v-58.6a6.59,6.59,0,0,0-6.59-6.59h-4.28V231.23L781.12,239c4.8,2.75,8.13,8.15,8.92,14.44L797,308.83Z" transform="translate(-396.41 -135)"/><path class="cls-1" d="M750.09,266.69a5.26,5.26,0,1,0,3.73,1.54A5.3,5.3,0,0,0,750.09,266.69Z" transform="translate(-396.41 -135)"/></svg>