<svg id="Calque_1" data-name="Calque 1" xmlns="http://www.w3.org/2000/svg" viewBox="0 0 645.38 398.86"><defs><style>.cls-1{fill:#804924;}.cls-2{font-size:282.17px;font-family:Rubik-Regular, Rubik;}</style></defs><title>logoV2</title><path class="cls-1" d="M66.51,374c-5.93,0-3.51-317.4,0-317.4S72.88,374,66.51,374Z" transform="translate(-1.62 -50.84)"/><path class="cls-1" d="M66.51,374S41.82,305,1.62,279.8c0,0,40.2,10.49,65,75.16Z" transform="translate(-1.62 -50.84)"/><path class="cls-1" d="M66.4,342.14s20.84-58.22,54.77-79.47c0,0-33.93,8.85-54.88,63.44Z" transform="translate(-1.62 -50.84)"/><path class="cls-1" d="M66.64,286.44s-46.14-19.22-50-67.11a24,24,0,0,0,14,11.18C40.42,233.31,58.6,241.7,66.64,286.44Z" transform="translate(-1.62 -50.84)"/><path class="cls-1" d="M66.64,249s-46.14-19.23-50-67.11a24,24,0,0,0,14,11.18C40.42,195.91,58.6,204.3,66.64,249Z" transform="translate(-1.62 -50.84)"/><path class="cls-1" d="M66.64,209.19S22.76,190.91,19.1,145.36A22.81,22.81,0,0,0,32.4,156C41.71,158.66,59,166.64,66.64,209.19Z" transform="translate(-1.62 -50.84)"/><path class="cls-1" d="M66.64,170.74S22.76,152.46,19.1,106.91a22.81,22.81,0,0,0,13.3,10.64C41.71,120.21,59,128.19,66.64,170.74Z" transform="translate(-1.62 -50.84)"/><path class="cls-1" d="M66.64,131.94S27.71,115.72,24.46,75.31a20.24,20.24,0,0,0,11.8,9.44C44.52,87.11,59.86,94.19,66.64,131.94Z" transform="translate(-1.62 -50.84)"/><path class="cls-1" d="M67,286.44s46.14-19.22,50-67.11a23.94,23.94,0,0,1-14,11.18C93.21,233.31,75,241.7,67,286.44Z" transform="translate(-1.62 -50.84)"/><path class="cls-1" d="M67,249s46.14-19.23,50-67.11a23.94,23.94,0,0,1-14,11.18C93.21,195.91,75,204.3,67,249Z" transform="translate(-1.62 -50.84)"/><path class="cls-1" d="M67,209.19s43.88-18.28,47.54-63.83A22.81,22.81,0,0,1,101.23,156C91.92,158.66,74.63,166.64,67,209.19Z" transform="translate(-1.62 -50.84)"/><path class="cls-1" d="M67,170.74s43.88-18.28,47.54-63.83a22.81,22.81,0,0,1-13.3,10.64C91.92,120.21,74.63,128.19,67,170.74Z" transform="translate(-1.62 -50.84)"/><path class="cls-1" d="M67,131.94s38.93-16.22,42.17-56.63a20.2,20.2,0,0,1-11.79,9.44C89.11,87.11,73.77,94.19,67,131.94Z" transform="translate(-1.62 -50.84)"/><path class="cls-1" d="M66.64,99.08S33.47,85.26,30.71,50.84a17.26,17.26,0,0,0,10,8C47.8,60.89,60.86,66.92,66.64,99.08Z" transform="translate(-1.62 -50.84)"/><path class="cls-1" d="M66.19,99.08s33.17-13.82,35.93-48.24a17.26,17.26,0,0,1-10.05,8C85,60.89,72,66.92,66.19,99.08Z" transform="translate(-1.62 -50.84)"/><text class="cls-2" transform="translate(109.55 322.4)">cale</text></svg>