<svg id="Capa_1" data-name="Capa 1" xmlns="http://www.w3.org/2000/svg" viewBox="0 0 262.49 297"><defs><style>.cls-1{fill:#527510;}</style></defs><title>logo-locavor-miniature</title><path class="cls-1" d="M114,209.15a8.36,8.36,0,1,0,5.91,2.45A8.39,8.39,0,0,0,114,209.15Z" transform="translate(-17.26)"/><path class="cls-1" d="M267.21,185.58c-2.06-16.46-11.21-30.85-24.49-38.48l-49-28.18a62,62,0,0,0,17-42.71c0-1.18,0-2.35-.1-3.53h58.67a10.46,10.46,0,1,0,0-20.91H223a79.48,79.48,0,0,0-149,0H27.71a10.46,10.46,0,0,0,0,20.91H86.39c-.07,1.18-.11,2.35-.11,3.53a62,62,0,0,0,17,42.71l-49,28.18c-13.27,7.63-22.43,22-24.49,38.48L17.34,285.24A10.45,10.45,0,0,0,27.71,297H269.29a10.45,10.45,0,0,0,10.37-11.76ZM89.94,193.47H207.06v82.61H89.94Zm17.25-20.92V140.81l14.62-8.4a62.18,62.18,0,0,0,53.38,0l14.62,8.4v31.74ZM148.5,20.92a58.8,58.8,0,0,1,50.81,29.45H97.69A58.8,58.8,0,0,1,148.5,20.92Zm41.16,51.76c.1,1.18.15,2.35.15,3.53a41.31,41.31,0,0,1-82.62,0c0-1.18,0-2.36.15-3.53ZM50.55,188.18c1.25-10,6.54-18.57,14.15-23l21.58-12.4v19.72h-6.8A10.46,10.46,0,0,0,69,183v93.08H39.56ZM228,276.08V183a10.46,10.46,0,0,0-10.46-10.46h-6.8V152.83l21.58,12.4c7.61,4.38,12.9,13,14.15,23l11,87.9Z" transform="translate(-17.26)"/><path class="cls-1" d="M183,209.15a8.35,8.35,0,1,0,5.92,2.45A8.39,8.39,0,0,0,183,209.15Z" transform="translate(-17.26)"/></svg>